<svg width="100" height="200" viewBox="0 0 100 200" xmlns="http://www.w3.org/2000/svg">
  <!-- Main Stem - Curve adjusted to start exactly at 50,0 -->
  <path d="M50,0 Q50,10 50,20 Q45,50 50,80 Q55,110 50,140 Q45,170 50,200" 
        stroke="#2e8b57" stroke-width="5" fill="none" stroke-linecap="round" />
  
  <!-- Right Thorns -->
  <path d="M50,30 L60,25 L50,35" fill="#2e8b57" />
  <path d="M50,90 L60,85 L50,95" fill="#2e8b57" />
  <path d="M50,150 L60,145 L50,155" fill="#2e8b57" />
  
  <!-- Left Thorns -->
  <path d="M50,60 L40,55 L50,65" fill="#2e8b57" />
  <path d="M50,120 L40,115 L50,125" fill="#2e8b57" />
  
  <!-- Leaves -->
  <path d="M50,100 Q70,90 80,100 Q70,120 50,105" fill="#2e8b57" />
  <path d="M50,60 Q30,50 20,60 Q30,80 50,65" fill="#2e8b57" />
</svg>
